<svg width="31" height="26" viewBox="0 0 31 26" fill="none" xmlns="http://www.w3.org/2000/svg">
<g opacity="0.5">
<path opacity="0.4" fill-rule="evenodd" clip-rule="evenodd" d="M6.86334 22.5885C6.86334 21.7485 7.58165 21.0685 8.46898 21.0685C9.34574 21.0685 10.064 21.7485 10.064 22.5885C10.064 23.4185 9.34574 24.0985 8.46898 24.0985C7.58165 24.0985 6.86334 23.4185 6.86334 22.5885ZM18.7471 22.5885C18.7471 21.7485 19.4655 21.0685 20.3528 21.0685C21.2295 21.0685 21.9478 21.7485 21.9478 22.5885C21.9478 23.4185 21.2295 24.0985 20.3528 24.0985C19.4655 24.0985 18.7471 23.4185 18.7471 22.5885Z" fill="url(#paint0_linear_1_616)"/>
<path fill-rule="evenodd" clip-rule="evenodd" d="M21.9481 8.34903C22.5924 8.34903 23.015 8.55903 23.4375 9.01903C23.86 9.47903 23.934 10.139 23.8389 10.738L22.8354 17.298C22.6452 18.559 21.5044 19.488 20.1628 19.488H8.6382C7.23327 19.488 6.07129 18.468 5.9551 17.149L4.98327 6.24803L3.3882 5.98803C2.96566 5.91803 2.66989 5.52803 2.74383 5.12803C2.81777 4.71803 3.22975 4.44803 3.66284 4.50803L6.18221 4.86803C6.54137 4.92903 6.80545 5.20803 6.83714 5.54803L7.03784 7.78803C7.06953 8.10903 7.34418 8.34903 7.68221 8.34903H21.9481ZM15.5466 13.548H18.4727C18.9164 13.548 19.265 13.208 19.265 12.798C19.265 12.378 18.9164 12.048 18.4727 12.048H15.5466C15.103 12.048 14.7544 12.378 14.7544 12.798C14.7544 13.208 15.103 13.548 15.5466 13.548Z" fill="url(#paint1_linear_1_616)"/>
</g>
<path d="M29.6972 6.5C29.6972 9.78824 26.8731 12.5 23.331 12.5C19.7889 12.5 16.9648 9.78824 16.9648 6.5C16.9648 3.21176 19.7889 0.5 23.331 0.5C26.8731 0.5 29.6972 3.21176 29.6972 6.5Z" fill="#FF4B4B" stroke="white"/>
<path d="M25.5328 4.60156V5.39258L23.1422 11H21.5778L23.9728 5.74414H20.9186V4.60156H25.5328Z" fill="white"/>
<defs>
<linearGradient id="paint0_linear_1_616" x1="6.86334" y1="20.8825" x2="18.0434" y2="29.506" gradientUnits="userSpaceOnUse">
<stop stop-color="#FF0000"/>
<stop offset="1" stop-color="#FF0000"/>
</linearGradient>
<linearGradient id="paint1_linear_1_616" x1="2.73248" y1="3.57936" x2="26.5868" y2="8.79293" gradientUnits="userSpaceOnUse">
<stop stop-color="#FF0000"/>
<stop offset="1" stop-color="#FF0000"/>
</linearGradient>
</defs>
</svg>
