<svg width="26" height="24" viewBox="0 0 26 24" fill="none" xmlns="http://www.w3.org/2000/svg">
<path d="M9.74337 20.7821V17.7152C9.74335 16.9381 10.4109 16.3067 11.2378 16.3018H14.2739C15.1044 16.3018 15.7777 16.9346 15.7777 17.7152V20.7732C15.7777 21.4473 16.3564 21.9951 17.0735 22H19.1449C20.1123 22.0023 21.0409 21.6428 21.7259 21.0007C22.4108 20.3586 22.7958 19.4868 22.7958 18.5775V9.86585C22.7957 9.13139 22.4494 8.43471 21.8499 7.9635L14.813 2.67427C13.5829 1.74912 11.8261 1.77901 10.6324 2.74538L3.74683 7.9635C3.11908 8.42082 2.74388 9.11956 2.72534 9.86585V18.5686C2.72534 20.4637 4.3599 22 6.37623 22H8.4003C8.74559 22.0023 9.07762 21.8751 9.32267 21.6464C9.56773 21.4178 9.70554 21.1067 9.70553 20.7821H9.74337Z" fill="#D61355"/>
</svg>
