<svg width="26" height="24" viewBox="0 0 26 24" fill="none" xmlns="http://www.w3.org/2000/svg">
<g opacity="0.5">
<path opacity="0.4" d="M13.2043 2C7.06693 2 2.61975 6.74 2.61975 12C2.61975 13.68 3.13736 15.41 4.04581 16.99C4.21482 17.25 4.23595 17.58 4.11975 17.89L3.412 20.13C3.25355 20.67 3.73947 21.07 4.2782 20.91L6.412 20.31C6.99299 20.13 7.44722 20.36 7.987 20.67C9.52926 21.53 11.4507 21.97 13.1831 21.97C18.4226 21.97 23.7465 18.14 23.7465 11.97C23.7465 6.65 19.2043 2 13.2043 2Z" fill="url(#paint0_linear_1_613)"/>
<path fill-rule="evenodd" clip-rule="evenodd" d="M13.1626 13.2901C12.4126 13.2801 11.8104 12.7101 11.8104 12.0001C11.8104 11.3001 12.4231 10.7201 13.1626 10.7301C13.9126 10.7301 14.5147 11.3001 14.5147 12.0101C14.5147 12.7101 13.9126 13.2901 13.1626 13.2901ZM8.29242 13.2901C7.55298 13.2901 6.94031 12.7101 6.94031 12.0101C6.94031 11.3001 7.54242 10.7301 8.29242 10.7301C9.04242 10.7301 9.64453 11.3001 9.64453 12.0101C9.64453 12.7101 9.04242 13.2801 8.29242 13.2901ZM16.68 12.0101C16.68 12.7101 17.2821 13.2901 18.0321 13.2901C18.7821 13.2901 19.3842 12.7101 19.3842 12.0101C19.3842 11.3001 18.7821 10.7301 18.0321 10.7301C17.2821 10.7301 16.68 11.3001 16.68 12.0101Z" fill="white"/>
</g>
<defs>
<linearGradient id="paint0_linear_1_613" x1="2.61975" y1="0.773773" x2="26.9406" y2="4.76021" gradientUnits="userSpaceOnUse">
<stop stop-color="#FF0000"/>
<stop offset="1" stop-color="#FF0000"/>
</linearGradient>
</defs>
</svg>
