<svg width="18" height="20" viewBox="0 0 18 20" fill="none" xmlns="http://www.w3.org/2000/svg">
<g opacity="0.5">
<path d="M9.08132 13.1747C4.52534 13.1747 0.633789 13.8547 0.633789 16.5747C0.633789 19.2957 4.50104 19.9997 9.08132 19.9997C13.6373 19.9997 17.5289 19.3207 17.5289 16.5997C17.5289 13.8787 13.6627 13.1747 9.08132 13.1747Z" fill="url(#paint0_linear_1_621)"/>
<path opacity="0.4" d="M9.08129 10.5838C12.1848 10.5838 14.6714 8.22876 14.6714 5.29176C14.6714 2.35476 12.1848 -0.000244141 9.08129 -0.000244141C5.97883 -0.000244141 3.49115 2.35476 3.49115 5.29176C3.49115 8.22876 5.97883 10.5838 9.08129 10.5838Z" fill="url(#paint1_linear_1_621)"/>
</g>
<defs>
<linearGradient id="paint0_linear_1_621" x1="0.633789" y1="12.7556" x2="18.0446" y2="19.4333" gradientUnits="userSpaceOnUse">
<stop stop-color="#FF0000"/>
<stop offset="1" stop-color="#FF0000"/>
</linearGradient>
<linearGradient id="paint1_linear_1_621" x1="3.49115" y1="-0.650139" x2="16.3628" y2="1.45648" gradientUnits="userSpaceOnUse">
<stop stop-color="#FF0000"/>
<stop offset="1" stop-color="#FF0000"/>
</linearGradient>
</defs>
</svg>
